:SAMPLES-PER-SECOND 30
:FULLY-SPECIFIED
:DEGREES
214
root  20.3368 39.5181 -8.34794 -141.39 -79.9167 141.263
RightUpLeg  4.625 -10.8882 -7.06991
RightLeg  8.46747 -3.74256 0.261727
RightFoot  -13.9426 -0.0862015 0.361135
RightToes  2.21189e-009 0 -3.6325e-017
Spine  6.3364 1.60004 9.56055
Spine1  5.73109 3.60847 -6.72966
HEad  -16.497 5.04063 -8.40284
LeftShoulder1  -0.572737 5.11395 -29.403
LeftArm  -2.32321 15.1371 -44.4084
LeftForeArm  22.78 -19.7639 -4.24828
LeftHand  -0.121235 0.511307 2.84652
RightShoulder  -0.695138 -5.55902 27.1547
RightArm  17.2021 0.637738 47.3396
RightForeArm  8.27814 12.4735 6.97544
RightHand  -0.592301 5.36102 -6.69121
LeftUpLeg  -14.0742 1.05078 -6.52764
LeftLeg  7.50602 -0.222813 -1.14098
LeftFoot  -1.9884 0.403517 -4.78288
LeftToes  -3.01956e-010 3.07132e-011 1.04116e-011
215
root  19.8916 39.447 -8.44848 -141.66 -80.2324 141.602
RightUpLeg  5.5551 -10.7275 -6.82025
RightLeg  8.09824 -4.13675 0.244215
RightFoot  -14.4994 -0.0835299 0.522807
RightToes  2.21189e-009 0 -3.6325e-017
Spine  6.33529 1.65931 9.25663
Spine1  5.49145 3.6124 -6.67847
HEad  -15.739 4.62539 -8.59839
LeftShoulder1  -0.565286 5.09691 -29.3153
LeftArm  -2.32808 15.3437 -44.1418
LeftForeArm  22.7632 -19.7649 -4.24744
LeftHand  -0.11179 0.732502 2.71337
RightShoulder  -0.711896 -5.6046 27.2269
RightArm  19.1283 1.5078 48.1869
RightForeArm  7.00259 13.535 6.97166
RightHand  -0.624794 5.89753 -6.738
LeftUpLeg  -14.2264 0.126149 -6.31819
LeftLeg  4.88447 2.05761 -1.39766
LeftFoot  -1.85391 0.427882 -5.01976
LeftToes  -3.01956e-010 3.07132e-011 1.04116e-011
216
root  19.3624 39.3569 -8.54954 -143.506 -80.4219 143.297
RightUpLeg  6.9162 -10.578 -6.5931
RightLeg  7.61626 -4.2311 0.308505
RightFoot  -15.1288 -0.0796098 0.701408
RightToes  2.21189e-009 0 -3.6325e-017
Spine  5.92736 1.78518 8.85412
Spine1  6.08781 3.69721 -6.4783
HEad  -15.2584 4.48569 -8.52819
LeftShoulder1  -0.573767 5.11355 -29.477
LeftArm  -2.29351 15.0782 -43.6698
LeftForeArm  22.6677 -19.2567 -4.40051
LeftHand  -0.096049 1.41899 2.66676
RightShoulder  -0.67174 -5.50217 26.925
RightArm  20.6544 2.35987 49.3267
RightForeArm  6.8894 14.4391 6.84292
RightHand  -0.542539 5.98844 -5.85315
LeftUpLeg  -14.2975 -0.250724 -6.16054
LeftLeg  3.53965 3.92394 -1.4442
LeftFoot  -1.5127 0.403242 -4.56187
LeftToes  -3.01956e-010 3.07132e-011 1.04116e-011
217
root  18.7515 39.2421 -8.65363 -145.501 -80.4574 145.028
RightUpLeg  8.33206 -10.5026 -6.53339
RightLeg  7.49402 -4.09549 0.32387
RightFoot  -15.8582 -0.0827125 0.612474
RightToes  2.21189e-009 0 -3.6325e-017
Spine  5.73701 1.8988 8.26394
Spine1  6.33176 3.7803 -6.30445
HEad  -15.0052 4.77035 -8.02932
LeftShoulder1  -0.579499 5.12894 -29.4823
LeftArm  -2.64427 15.1294 -43.2797
LeftForeArm  22.5244 -18.5649 -4.60511
LeftHand  -0.0889183 2.62063 3.19349
RightShoulder  -0.633944 -5.39811 26.7436
RightArm  22.0517 2.7816 50.3201
RightForeArm  5.99374 15.212 6.72482
RightHand  -0.587867 5.62388 -6.50534
LeftUpLeg  -14.3404 -0.325879 -6.25276
LeftLeg  3.65794 4.45858 -1.33541
LeftFoot  -0.0631751 0.29649 -3.102
LeftToes  -3.01956e-010 3.07132e-011 1.04116e-011
218
root  18.0404 39.0944 -8.75993 -147.68 -80.3615 146.761
RightUpLeg  10.0668 -10.411 -6.64313
RightLeg  7.48044 -3.84088 0.2748
RightFoot  -16.9885 -0.0610253 1.09943
RightToes  2.21189e-009 0 -3.6325e-017
Spine  5.27254 1.99082 8.29235
Spine1  6.99744 4.1906 -7.42892
HEad  -14.6254 4.87678 -7.33547
LeftShoulder1  -0.512832 4.96208 -29.0029
LeftArm  -3.87939 15.1293 -42.9564
LeftForeArm  23.6067 -17.3337 -4.87084
LeftHand  -0.105144 2.30871 3.56678
RightShoulder  -0.71056 -5.59641 27.297
RightArm  23.0774 2.8878 50.9997
RightForeArm  5.4178 16.0325 6.49352
RightHand  -0.564069 4.99645 -6.59357
LeftUpLeg  -14.6805 0.480311 -6.67737
LeftLeg  6.41911 3.28152 -1.06044
LeftFoot  2.47153 -0.0946447 0.693464
LeftToes  -3.01956e-010 3.07132e-011 1.04116e-011
219
root  17.2486 38.9103 -8.86629 -148.813 -80.0536 147.333
RightUpLeg  11.6497 -10.4489 -7.12282
RightLeg  8.23683 -3.43912 0.0899399
RightFoot  -18.3786 -0.0218027 1.66037
RightToes  2.21189e-009 0 -3.6325e-017
Spine  4.88712 2.09981 7.20214
Spine1  7.43263 4.30566 -7.43362
HEad  -13.925 5.05581 -6.79825
LeftShoulder1  -0.547072 5.05791 -29.0211
LeftArm  -4.96686 15.3344 -42.383
LeftForeArm  24.0065 -16.3015 -5.06477
LeftHand  -0.12274 1.68897 3.65901
RightShoulder  -0.667276 -5.48031 27.0767
RightArm  23.4315 2.50272 51.9057
RightForeArm  5.49778 16.4602 6.33866
RightHand  -0.590065 5.4014 -6.65103
LeftUpLeg  -14.9371 1.90444 -7.48214
LeftLeg  10.3149 1.87837 -0.608489
LeftFoot  2.47437 -0.53653 4.32433
LeftToes  -3.01956e-010 3.07132e-011 1.04116e-011
220
root  16.4286 38.7423 -8.93941 -147.902 -79.5935 145.487
RightUpLeg  13.122 -10.5111 -8.06366
RightLeg  10.0228 -2.96209 -0.54955
RightFoot  -19.7051 0.0833119 2.95402
RightToes  2.21189e-009 0 -3.6325e-017
Spine  4.98784 2.07888 5.90293
Spine1  7.74951 4.39679 -7.83595
HEad  -13.2394 4.93593 -6.39221
LeftShoulder1  -0.615621 5.2403 -29.2842
LeftArm  -6.67499 15.2189 -41.6381
LeftForeArm  25.3196 -15.0491 -5.14214
LeftHand  -0.100989 1.43082 2.74544
RightShoulder  -0.649399 -5.41205 27.3308
RightArm  23.729 2.1955 52.3578
RightForeArm  5.61034 16.5663 6.33131
RightHand  -0.61994 5.87268 -6.69882
LeftUpLeg  -14.7445 2.14442 -8.56077
LeftLeg  14.2517 1.57782 0.341601
LeftFoot  1.05321 -0.640405 5.83734
LeftToes  -3.01956e-010 3.07132e-011 1.04116e-011
221
root  15.5925 38.5896 -8.98687 -146.262 -79.4456 142.899
RightUpLeg  13.9948 -10.4669 -9.13874
RightLeg  13.2013 -2.67825 -0.942734
RightFoot  -20.7054 0.274963 5.066
RightToes  2.21189e-009 0 -3.6325e-017
Spine  5.18531 2.08828 5.11708
Spine1  7.95759 4.58157 -8.54216
HEad  -12.4888 4.61101 -6.07116
LeftShoulder1  -0.571644 5.10907 -29.4384
LeftArm  -7.62488 15.0161 -41.1549
LeftForeArm  25.4675 -13.954 -5.26244
LeftHand  -0.0616632 2.49905 2.00218
RightShoulder  -0.655408 -5.43735 27.2012
RightArm  23.2456 1.3022 52.8405
RightForeArm  5.49458 16.4976 6.32449
RightHand  -0.681023 6.05553 -7.22293
LeftUpLeg  -14.0018 1.90869 -9.40924
LeftLeg  17.4235 2.00599 1.02704
LeftFoot  -1.01086 -0.604535 6.73969
LeftToes  -3.01956e-010 3.07132e-011 1.04116e-011
